<svg xmlns="http://www.w3.org/2000/svg" xmlns:xlink="http://www.w3.org/1999/xlink" aria-hidden="true" role="img" class="iconify iconify--logos" width="31.88" height="32" preserveAspectRatio="xMidYMid meet" viewBox="0 0 256 257"><path fill="#41B883" d="M210.483 74.823a171.49 171.49 0 0 0-8.247-2.681c.119 1.12.214 2.256.297 3.408a121.128 121.128 0 0 1 7.95 51.414a122.644 122.644 0 0 1-3.22 26.127c.481.343.978.672 1.489 1a147.685 147.685 0 0 0 37.438-40.876a171.23 171.23 0 0 0-35.907-38.592z"></path><path fill="#41B883" d="M182.673 14.041a171.472 171.472 0 0 0-14.132-3.802v50.444a120.672 120.672 0 0 1 12.182 1.685c-.113-1.122-.21-2.255-.294-3.406a121.124 121.124 0 0 1 1.889-44.921z"></path><path fill="#41B883" d="M145.581 146.221a35.106 35.106 0 0 1-18.082 0l-84.526-49.145a35.105 35.105 0 0 1 0-61.952l84.526-49.145a35.106 35.106 0 0 1 18.082 0l84.526 49.145a35.105 35.105 0 0 1 0 61.952l-84.526 49.145z"></path><path fill="#35495E" d="M127.5 32.014L62.734 67.068l64.766 38.124l64.766-38.124l-64.766-35.054z"></path><path fill="#41B883" d="M42.701 222.58a147.35 147.35 0 0 1 1.486-1.017a122.208 122.208 0 0 0 3.216-26.124a121.125 121.125 0 0 0-7.949-51.414c-.083 1.153-.178 2.288-.296 3.409a171.484 171.484 0 0 0 8.244 2.681a171.231 171.231 0 0 0-35.907 38.593a147.685 147.685 0 0 0 37.438 40.875z"></path><path fill="#41B883" d="M127.5 224.986l64.766-35.054v50.444a171.47 171.47 0 0 0 14.132-3.802a121.12 121.12 0 0 1-1.889-44.921a120.671 120.671 0 0 1-12.182 1.685z"></path><path fill="#41B883" d="M127.5 224.986l-64.766-35.054v50.444a171.47 171.47 0 0 0-14.132-3.802a121.12 121.12 0 0 1 1.889-44.921a120.671 120.671 0 0 1 12.182 1.685z"></path><path fill="#41B883" d="M127.5 85.193V32.014l-64.766 35.054v50.443l64.766 38.124z"></path><path fill="#41B883" d="M127.5 169.807v52.971l64.766-35.054V127.748l-64.766 38.124z"></path><path fill="#41B883" d="M42.701 33.42a147.348 147.348 0 0 1-1.486 1.017a122.208 122.208 0 0 0-3.216 26.124a121.124 121.124 0 0 0 7.949 51.414c.083-1.153.178-2.288.296-3.409a171.485 171.485 0 0 0-8.244-2.681a171.23 171.23 0 0 0 35.907-38.593a147.685 147.685 0 0 0-37.438-40.875z"></path><path fill="#41B883" d="M42.701 222.58a147.35 147.35 0 0 1-24.541-29.522a171.23 171.23 0 0 0 35.907-38.593a171.5 171.5 0 0 0-8.244-2.681v-50.444a171.472 171.472 0 0 0 14.132 3.802a121.124 121.124 0 0 1-7.949 51.414c-.083 1.153-.178 2.288-.296 3.409a120.672 120.672 0 0 1-12.182-1.685a122.208 122.208 0 0 0 3.216 26.124a147.348 147.348 0 0 1-1.486 1.017z"></path><path fill="#41B883" d="M213.299 33.42a147.348 147.348 0 0 1 1.486 1.017a122.208 122.208 0 0 0 3.216 26.124a120.672 120.672 0 0 1 12.182-1.685c-.083-1.153-.178-2.288-.296-3.409a121.125 121.125 0 0 1-7.949-51.414a171.472 171.472 0 0 0-14.132 3.802v50.444a171.5 171.5 0 0 0 8.244 2.681a171.231 171.231 0 0 0-35.907 38.593a147.684 147.684 0 0 0 37.438-40.875a147.35 147.35 0 0 1-24.541 29.522z"></path></svg>